<?xml version="1.0" encoding="iso-8859-1"?>
<!-- Uploaded to: SVG Repo, www.svgrepo.com, Generator: SVG Repo Mixer Tools -->
<svg height="800px" width="800px" version="1.1" id="Capa_1" xmlns="http://www.w3.org/2000/svg" xmlns:xlink="http://www.w3.org/1999/xlink" 
	 viewBox="0 0 48.127 48.127" xml:space="preserve">
<g>
	<g>
		<path style="fill:#010002;" d="M24.063,0C13.854,0,5.547,8.306,5.547,18.516c0,9.649,15.368,26.264,17.12,28.127l1.396,1.484
			l1.395-1.484C27.21,44.78,42.58,28.164,42.58,18.516C42.578,8.306,34.272,0,24.063,0z M24.063,42.494
			C18.955,36.783,9.378,24.782,9.378,18.515c0-8.097,6.587-14.685,14.685-14.685c8.097,0,14.685,6.588,14.685,14.685
			C38.747,24.776,29.17,36.78,24.063,42.494z"/>
		<path style="fill:#010002;" d="M24.063,10.854c-4.225,0-7.662,3.437-7.662,7.662s3.437,7.662,7.662,7.662s7.662-3.437,7.662-7.662
			C31.724,14.291,28.287,10.854,24.063,10.854z"/>
	</g>
</g>
</svg>